HIERARCHY
ROOT Model
{
	OFFSET 0 0 0
	CHANNELS 6 Xposition Yposition Zposition Zrotation Xrotation Yrotation
	JOINT Model1
	{
		OFFSET 0 -2.25479 2.99383
		CHANNELS 3 Zrotation Xrotation Yrotation
		JOINT Model2
		{
			OFFSET 12.111 0 0
			CHANNELS 3 Zrotation Xrotation Yrotation
			JOINT Model3
			{
				OFFSET 11.5502 0 0
				CHANNELS 3 Zrotation Xrotation Yrotation
				JOINT Model4
				{
					OFFSET 11.781 0 0
					CHANNELS 3 Zrotation Xrotation Yrotation
					JOINT Model5
					{
						OFFSET 20.0601 0 0
						CHANNELS 3 Zrotation Xrotation Yrotation
						JOINT Model6
						{
							OFFSET 11.1962 0 0
							CHANNELS 3 Zrotation Xrotation Yrotation
							End Site
							{
								OFFSET 0 0 0
							}
						}
					}
					JOINT Model7
					{
						OFFSET 10.8223 0.417534 3.51114
						CHANNELS 3 Zrotation Xrotation Yrotation
						JOINT Model8
						{
							OFFSET -6.07943 0 0
							CHANNELS 3 Zrotation Xrotation Yrotation
							JOINT Model9
							{
								OFFSET -0.277416 10.39 -0.0512466
								CHANNELS 3 Zrotation Xrotation Yrotation
								JOINT Model10
								{
									OFFSET -3.4391 -0.282043 1.86678
									CHANNELS 3 Zrotation Xrotation Yrotation
									JOINT Model11
									{
										OFFSET 13.0269 0 0
										CHANNELS 3 Zrotation Xrotation Yrotation
										JOINT Model12
										{
											OFFSET 10.8866 0 0
											CHANNELS 3 Zrotation Xrotation Yrotation
											JOINT Model13
											{
												OFFSET 16.7317 0 0
												CHANNELS 3 Zrotation Xrotation Yrotation
												JOINT Model14
												{
													OFFSET 11.8292 0 0
													CHANNELS 3 Zrotation Xrotation Yrotation
													JOINT Model15
													{
														OFFSET 4.82751 -3.73566 -0.836517
														CHANNELS 3 Zrotation Xrotation Yrotation
														JOINT Model16
														{
															OFFSET 3.75311 -0.0582886 -0.0186462
															CHANNELS 3 Zrotation Xrotation Yrotation
															JOINT Model17
															{
																OFFSET 2.88688 0.0192337 0.014801
																CHANNELS 3 Zrotation Xrotation Yrotation
																End Site
																{
																	OFFSET 0 0 0
																}
															}
														}
													}
													JOINT Model18
													{
														OFFSET 9.72197 -3.06458 0.23877
														CHANNELS 3 Zrotation Xrotation Yrotation
														JOINT Model19
														{
															OFFSET 4.61131 0 0
															CHANNELS 3 Zrotation Xrotation Yrotation
															JOINT Model20
															{
																OFFSET 2.8969 -7.62939e-006 0
																CHANNELS 3 Zrotation Xrotation Yrotation
																End Site
																{
																	OFFSET 0 0 0
																}
															}
														}
													}
													JOINT Model21
													{
														OFFSET 9.54431 -0.745064 0.588936
														CHANNELS 3 Zrotation Xrotation Yrotation
														JOINT Model22
														{
															OFFSET 5.33978 0 0
															CHANNELS 3 Zrotation Xrotation Yrotation
															JOINT Model23
															{
																OFFSET 3.03619 7.62939e-006 0
																CHANNELS 3 Zrotation Xrotation Yrotation
																End Site
																{
																	OFFSET 0 0 0
																}
															}
														}
													}
													JOINT Model24
													{
														OFFSET 9.47759 1.51286 0.485123
														CHANNELS 3 Zrotation Xrotation Yrotation
														JOINT Model25
														{
															OFFSET 4.96136 7.62939e-006 0
															CHANNELS 3 Zrotation Xrotation Yrotation
															JOINT Model26
															{
																OFFSET 2.51966 0 0
																CHANNELS 3 Zrotation Xrotation Yrotation
																End Site
																{
																	OFFSET 0 0 0
																}
															}
														}
													}
													JOINT Model27
													{
														OFFSET 9.34247 3.34117 -0.239281
														CHANNELS 3 Zrotation Xrotation Yrotation
														JOINT Model28
														{
															OFFSET 3.2826 2.28882e-005 0
															CHANNELS 3 Zrotation Xrotation Yrotation
															JOINT Model29
															{
																OFFSET 2.1292 0 0
																CHANNELS 3 Zrotation Xrotation Yrotation
																End Site
																{
																	OFFSET 0 0 0
																}
															}
														}
													}
												}
											}
										}
									}
								}
							}
						}
					}
					JOINT Model30
					{
						OFFSET 10.8223 0.4179 -3.51107
						CHANNELS 3 Zrotation Xrotation Yrotation
						JOINT Model31
						{
							OFFSET 6.07943 0 0
							CHANNELS 3 Zrotation Xrotation Yrotation
							JOINT Model32
							{
								OFFSET 0.277416 -10.39 0.0512466
								CHANNELS 3 Zrotation Xrotation Yrotation
								JOINT Model33
								{
									OFFSET 3.4391 0.282043 -1.86678
									CHANNELS 3 Zrotation Xrotation Yrotation
									JOINT Model34
									{
										OFFSET -13.0269 0 0
										CHANNELS 3 Zrotation Xrotation Yrotation
										JOINT Model35
										{
											OFFSET -10.8866 0 0
											CHANNELS 3 Zrotation Xrotation Yrotation
											JOINT Model36
											{
												OFFSET -16.7317 0 0
												CHANNELS 3 Zrotation Xrotation Yrotation
												JOINT Model37
												{
													OFFSET -11.8292 0 0
													CHANNELS 3 Zrotation Xrotation Yrotation
													JOINT Model38
													{
														OFFSET -4.82751 3.73566 0.836517
														CHANNELS 3 Zrotation Xrotation Yrotation
														JOINT Model39
														{
															OFFSET -3.75311 0.0582886 0.0186462
															CHANNELS 3 Zrotation Xrotation Yrotation
															JOINT Model40
															{
																OFFSET -2.88688 -0.0192337 -0.014801
																CHANNELS 3 Zrotation Xrotation Yrotation
																End Site
																{
																	OFFSET 0 0 0
																}
															}
														}
													}
													JOINT Model41
													{
														OFFSET -9.72197 3.06459 -0.23877
														CHANNELS 3 Zrotation Xrotation Yrotation
														JOINT Model42
														{
															OFFSET -4.6113 0 0
															CHANNELS 3 Zrotation Xrotation Yrotation
															JOINT Model43
															{
																OFFSET -2.8969 0 0
																CHANNELS 3 Zrotation Xrotation Yrotation
																End Site
																{
																	OFFSET 0 0 0
																}
															}
														}
													}
													JOINT Model44
													{
														OFFSET -9.5443 0.745064 -0.588936
														CHANNELS 3 Zrotation Xrotation Yrotation
														JOINT Model45
														{
															OFFSET -5.33978 0 0
															CHANNELS 3 Zrotation Xrotation Yrotation
															JOINT Model46
															{
																OFFSET -3.03619 -1.52588e-005 0
																CHANNELS 3 Zrotation Xrotation Yrotation
																End Site
																{
																	OFFSET 0 0 0
																}
															}
														}
													}
													JOINT Model47
													{
														OFFSET -9.47759 -1.51286 -0.485123
														CHANNELS 3 Zrotation Xrotation Yrotation
														JOINT Model48
														{
															OFFSET -4.96136 -1.52588e-005 0
															CHANNELS 3 Zrotation Xrotation Yrotation
															JOINT Model49
															{
																OFFSET -2.51966 0 0
																CHANNELS 3 Zrotation Xrotation Yrotation
																End Site
																{
																	OFFSET 0 0 0
																}
															}
														}
													}
													JOINT Model50
													{
														OFFSET -9.34246 -3.34118 0.239281
														CHANNELS 3 Zrotation Xrotation Yrotation
														JOINT Model51
														{
															OFFSET -3.2826 -1.90735e-005 0
															CHANNELS 3 Zrotation Xrotation Yrotation
															JOINT Model52
															{
																OFFSET -2.1292 0 0
																CHANNELS 3 Zrotation Xrotation Yrotation
																End Site
																{
																	OFFSET 0 0 0
																}
															}
														}
													}
												}
											}
										}
									}
								}
							}
						}
					}
				}
			}
		}
	}
	JOINT Model53
	{
		OFFSET 4.38026 -2.14632 -1.11516
		CHANNELS 3 Zrotation Xrotation Yrotation
		JOINT Model54
		{
			OFFSET 0 0 4.94999
			CHANNELS 3 Zrotation Xrotation Yrotation
			JOINT Model55
			{
				OFFSET 18.5642 0 0
				CHANNELS 3 Zrotation Xrotation Yrotation
				JOINT Model56
				{
					OFFSET 21.2884 0 1.52588e-005
					CHANNELS 3 Zrotation Xrotation Yrotation
					JOINT Model57
					{
						OFFSET 30.261 0 0
						CHANNELS 3 Zrotation Xrotation Yrotation
						JOINT Model58
						{
							OFFSET 11.7259 0 0
							CHANNELS 3 Zrotation Xrotation Yrotation
							JOINT Model59
							{
								OFFSET 10.682 0 0
								CHANNELS 3 Zrotation Xrotation Yrotation
								End Site
								{
									OFFSET 0 0 0
								}
							}
						}
					}
				}
			}
		}
	}
	JOINT Model60
	{
		OFFSET -4.38026 -2.14632 -1.11516
		CHANNELS 3 Zrotation Xrotation Yrotation
		JOINT Model61
		{
			OFFSET 0 0 -4.94999
			CHANNELS 3 Zrotation Xrotation Yrotation
			JOINT Model62
			{
				OFFSET -18.5642 0 0
				CHANNELS 3 Zrotation Xrotation Yrotation
				JOINT Model63
				{
					OFFSET -21.2884 0 -1.52588e-005
					CHANNELS 3 Zrotation Xrotation Yrotation
					JOINT Model64
					{
						OFFSET -30.261 0 0
						CHANNELS 3 Zrotation Xrotation Yrotation
						JOINT Model65
						{
							OFFSET -11.7259 0 0
							CHANNELS 3 Zrotation Xrotation Yrotation
							JOINT Model66
							{
								OFFSET -10.682 0 0
								CHANNELS 3 Zrotation Xrotation Yrotation
								End Site
								{
									OFFSET 0 0 0
								}
							}
						}
					}
				}
			}
		}
	}
}
MOTION
Frames: 4
Frame Time: 0.033333
-13.0419 149.673 198.771 -11.0037 56.616 -168.324 -180 4.29621e-031 -90 1.03417 0.963612 -0.082868 4.06993 1.91769 -0.729145 4.06282 1.91923 -0.768455 24.4924 -5.855 2.20419 -10.1889 -4.14269 8.09631 120.092 75.5343 58.4939 13.4706 6.73246 -0.668561 -167.277 84.4999 48.8109 111.315 12.1656 -46.4266 4.84316e-006 9.53359 2.9546e-005 -13.3538 7.39413 3.39199 9.37696e-007 10.8939 1.11952e-006 15.2659 -1.32645 -9.87373 -72.6598 37.7008 41.5176 33.3638 2.10362 14.835 0.588947 0.308273 6.35287 -99.6409 81.413 100.35 -0.0181409 2.77847e-005 -0.117315 -0.124139 0.00241113 -0.799296 -79.8382 79.5773 80.5374 -0.000218566 -0.000220917 2.19079e-005 -0.000956226 0.000122903 -2.73208e-005 -66.7416 80.4058 67.2171 -0.000437132 1.59515e-005 -2.73208e-005 -0.000136604 -0.000109283 -5.46415e-005 -6.42159 81.2158 8.01779 -0.000218566 1.69077e-005 0.00021214 0.000901584 -0.000184802 -0.000218566 -59.9282 75.5373 58.5147 4.49114 9.8249 2.16388 -167.277 84.4999 48.8109 106.387 15.255 -54.9301 4.73676e-006 3.77059 3.00436e-005 -18.0511 6.15144 8.60362 -3.49267e-006 9.02308 1.36983e-006 23.5736 -1.18838 -5.69057 -72.2202 37.4765 41.1161 33.3638 2.10361 14.835 0.588946 0.308273 6.35287 -99.6409 81.413 100.35 -0.0181409 3.00782e-005 -0.117315 -0.124139 0.00241113 -0.799296 -79.8382 79.5773 80.5374 -0.000218566 -0.000218566 2.18992e-005 -0.000956226 0.000122996 -2.73208e-005 -66.7416 80.4058 67.2171 -0.000437132 1.48813e-005 -2.73208e-005 -0.000136604 -0.000109283 -5.46415e-005 -6.42159 81.2158 8.01779 -0.000218566 1.95788e-005 0.000212297 0.000901583 -0.000191245 -0.000218566 0.000811311 0.56661 89.91 -67.7628 -1.2813 0.440069 -6.56364e-007 -1.75955 -1.3665e-008 72.0654 7.65412 -0.157111 2.99549e-007 11.3649 3.37192e-007 -84.3173 13.9556 -6.62326 -35.8098 1.33902 -0.103695 -180 -0.566579 -90.09 -42.1703 -1.982 1.19382 -1.126e-006 -3.15593 -4.64149e-008 88.5567 5.91752 2.43926 5.46991e-007 8.76113 5.57104e-007 -60.7674 4.0522 -3.19493 -35.4947 3.58376e-009 1.93949e-008 
-13.2779 153.475 190.43 -5.73406 56.9012 -172.96 -180 4.29621e-031 -90 0.841593 0.818945 0.171006 3.75324 1.67287 -0.262006 3.746 1.68478 -0.297576 24.4924 -5.855 2.20419 -8.35132 -2.23453 8.09627 120.092 75.5343 58.4939 15.4654 4.80997 -1.43243 -167.277 84.4999 48.8109 115.651 11.9618 -57.7178 6.31212e-006 6.70328 2.93385e-005 -12.519 6.05892 1.53688 9.77357e-007 8.88805 1.11271e-006 13.8436 -1.47586 -12.1124 -72.6598 37.7008 41.5176 33.3638 2.10362 14.835 0.588947 0.308273 6.35287 -99.6409 81.413 100.35 -0.0181409 2.77847e-005 -0.117315 -0.124139 0.00241113 -0.799296 -79.8382 79.5773 80.5374 -0.000218566 -0.000220917 2.19079e-005 -0.000956226 0.000122903 -2.73208e-005 -66.7416 80.4058 67.2171 -0.000437132 1.59515e-005 -2.73208e-005 -0.000136604 -0.000109283 -5.46415e-005 -6.42159 81.2158 8.01779 -0.000218566 1.69077e-005 0.00021214 0.000901584 -0.000184802 -0.000218566 -59.9282 75.5373 58.5147 8.62913 9.36826 1.00997 -167.277 84.4999 48.8109 105.33 18.8921 -62.3198 5.61887e-006 2.0892 2.99986e-005 -16.3353 6.38001 6.37972 -3.50071e-006 9.35511 1.37112e-006 22.7819 -1.43714 -7.12445 -72.2202 37.4765 41.1161 33.3638 2.10361 14.835 0.588946 0.308273 6.35287 -99.6409 81.413 100.35 -0.0181409 3.00782e-005 -0.117315 -0.124139 0.00241113 -0.799296 -79.8382 79.5773 80.5374 -0.000218566 -0.000218566 2.18992e-005 -0.000956226 0.000122996 -2.73208e-005 -66.7416 80.4058 67.2171 -0.000437132 1.48813e-005 -2.73208e-005 -0.000136604 -0.000109283 -5.46415e-005 -6.42159 81.2158 8.01779 -0.000218566 1.95788e-005 0.000212297 0.000901583 -0.000191245 -0.000218566 0.000811311 0.56661 89.91 -56.9078 -1.23369 -1.99486 -6.56335e-007 -1.64048 -1.36642e-008 62.7039 7.41137 0.919128 3.01675e-007 11.0103 3.36779e-007 -82.1286 12.4941 -6.283 -39.8614 3.13794 -0.311115 -180 -0.566579 -90.09 -50.9967 -2.2459 -1.40662 -1.12594e-006 -3.08031 -4.64115e-008 92.6831 5.82161 2.14883 5.48422e-007 8.61559 5.56888e-007 -59.9787 4.76734 -3.65928 -35.4947 3.58375e-009 1.93949e-008 
-13.4677 158.308 181.376 -3.12126 58.5455 -175.428 -180 4.29621e-031 -90 1.53692 0.616742 0.473392 4.50395 1.33173 0.322287 4.49687 1.36105 0.302134 24.4924 -5.855 2.20419 -6.20349 -0.849503 7.83853 120.092 75.5343 58.4939 16.2661 4.09776 -1.71036 -167.277 84.4999 48.8109 118.143 9.59807 -64.8283 8.64345e-006 2.14879 2.91584e-005 -13.1741 4.50305 -0.655542 1.02333e-006 6.53537 1.10654e-006 11.9928 -1.64691 -15.5832 -72.6598 37.7008 41.5176 33.3638 2.10362 14.835 0.588947 0.308273 6.35287 -99.6409 81.413 100.35 -0.0181409 2.77847e-005 -0.117315 -0.124139 0.00241113 -0.799296 -79.8382 79.5773 80.5374 -0.000218566 -0.000220917 2.19079e-005 -0.000956226 0.000122903 -2.73208e-005 -66.7416 80.4058 67.2171 -0.000437132 1.59515e-005 -2.73208e-005 -0.000136604 -0.000109283 -5.46415e-005 -6.42159 81.2158 8.01779 -0.000218566 1.69077e-005 0.00021214 0.000901584 -0.000184802 -0.000218566 -59.9282 75.5373 58.5147 10.1371 9.41617 0.647838 -167.277 84.4999 48.8109 104.879 21.2151 -67.2312 6.35603e-006 0.681222 2.99807e-005 -16.5565 5.75181 5.02795 -3.47717e-006 8.38196 1.36749e-006 23.0716 -1.38466 -6.77661 -72.2202 37.4765 41.1161 33.3638 2.10361 14.835 0.588946 0.308273 6.35287 -99.6409 81.413 100.35 -0.0181409 3.00782e-005 -0.117315 -0.124139 0.00241113 -0.799296 -79.8382 79.5773 80.5374 -0.000218566 -0.000218566 2.18992e-005 -0.000956226 0.000122996 -2.73208e-005 -66.7416 80.4058 67.2171 -0.000437132 1.48813e-005 -2.73208e-005 -0.000136604 -0.000109283 -5.46415e-005 -6.42159 81.2158 8.01779 -0.000218566 1.95788e-005 0.000212297 0.000901583 -0.000191245 -0.000218566 0.000811311 0.56661 89.91 -43.1797 -1.01276 -2.11111 -6.56166e-007 -0.928578 -1.36604e-008 49.8192 6.73693 1.3958 3.07605e-007 10.0166 3.35697e-007 -74.1144 7.66773 -4.76266 -43.5495 9.23202 -0.434356 -180 -0.566579 -90.09 -56.7494 -2.64854 -4.70935 -1.12638e-006 -3.6222 -4.64372e-008 91.348 5.75478 2.15817 5.49409e-007 8.51519 5.56741e-007 -59.7899 4.31215 -3.37264 -35.4947 3.58374e-009 1.93949e-008 
-13.4166 163.182 171.945 -3.47141 59.3854 -175.39 -180 4.29621e-031 -90 1.83143 0.432361 0.664322 4.68617 0.968975 0.913921 4.68251 0.996108 0.903322 24.4924 -5.855 2.20419 -3.0045 -0.0615218 7.03823 120.092 75.5343 58.4939 17.1788 3.14491 -2.03683 -167.277 84.4999 48.8109 118.046 7.46451 -66.9729 1.07435e-005 -1.97896 2.91553e-005 -14.9037 1.87809 -2.16803 1.10001e-006 2.5658 1.10045e-006 10.6885 -1.91085 -20.2163 -72.6598 37.7008 41.5176 33.3638 2.10362 14.835 0.588947 0.308273 6.35287 -99.6409 81.413 100.35 -0.0181409 2.77847e-005 -0.117315 -0.124139 0.00241113 -0.799296 -79.8382 79.5773 80.5374 -0.000218566 -0.000220917 2.19079e-005 -0.000956226 0.000122903 -2.73208e-005 -66.7416 80.4058 67.2171 -0.000437132 1.59515e-005 -2.73208e-005 -0.000136604 -0.000109283 -5.46415e-005 -6.42159 81.2158 8.01779 -0.000218566 1.69077e-005 0.00021214 0.000901584 -0.000184802 -0.000218566 -59.9282 75.5373 58.5147 10.6943 9.13933 0.452633 -167.277 84.4999 48.8109 104.348 22.6547 -69.1837 6.56761e-006 0.276869 2.9979e-005 -17.0586 5.62165 4.80472 -3.47215e-006 8.17379 1.36677e-006 22.8948 -1.03226 -5.09451 -72.2202 37.4765 41.1161 33.3638 2.10361 14.835 0.588946 0.308273 6.35287 -99.6409 81.413 100.35 -0.0181409 3.00782e-005 -0.117315 -0.124139 0.00241113 -0.799296 -79.8382 79.5773 80.5374 -0.000218566 -0.000218566 2.18992e-005 -0.000956226 0.000122996 -2.73208e-005 -66.7416 80.4058 67.2171 -0.000437132 1.48813e-005 -2.73208e-005 -0.000136604 -0.000109283 -5.46415e-005 -6.42159 81.2158 8.01779 -0.000218566 1.95788e-005 0.000212297 0.000901583 -0.000191245 -0.000218566 0.000811311 0.56661 89.91 -31.8842 -0.463791 -0.979147 -6.55997e-007 -0.220717 -1.36587e-008 37.1419 4.93817 1.80817 3.23408e-007 7.34059 3.33312e-007 -59.0272 5.02829 -3.8484 -46.9397 10.4443 -0.245903 -180 -0.566579 -90.09 -59.5894 -3.09397 -7.86195 -1.12703e-006 -4.42352 -4.64829e-008 85.3411 4.97765 2.83461 5.60798e-007 7.35272 5.55169e-007 -60.5184 3.12999 -2.618 -35.4947 3.58371e-009 1.93948e-008 
